<svg version="1" xmlns="http://www.w3.org/2000/svg" width="346.667" height="346.667" viewBox="0 0 260.000000 260.000000"><path d="M12.9 27.9C7.7 33.2 7.1 31.8 31.7 74c12.7 21.8 57.1 98.4 75.7 130.5 8.6 14.8 16.6 27.8 17.7 28.7 2.3 2 7 2.3 9.9.8 2-1.1 3-2.8 31-51 23.8-41 36.6-63 54-93 7.9-13.5 15.3-26.3 16.5-28.5 1.3-2.2 5-8.7 8.4-14.5 7-12 7.4-14.8 3.1-19.1l-2.9-3-31 .3c-30.8.3-31.1.3-33.3 2.6-2.3 2.2-2.3 2.5-2.8 37-.5 30.5-.8 35.3-2.4 39.7-2.5 6.8-7.8 14.8-12.9 19.6-4.4 4.2-16.1 10.4-21.2 11.4-24.5 4.8-47.3-7.6-55.8-30.3-2-5.3-2.2-8.1-2.7-40.5l-.5-34.9-2.8-2.4-2.8-2.4H15.8l-2.9 2.9z"/><path d="M114.2 26c-4.5 1.9-5 5.3-5 37.5 0 16.5.4 31.6.9 33.6 4.5 17.9 28.7 21.3 38.4 5.5l3-4.9.1-32.4c0-34.9-.3-37.5-5.1-39.3-3.3-1.2-29.2-1.2-32.3 0z"/></svg>